<?xml version="1.0" standalone="no"?>
<!DOCTYPE svg PUBLIC "-//W3C//DTD SVG 20010904//EN"
 "http://www.w3.org/TR/2001/REC-SVG-20010904/DTD/svg10.dtd">
<svg version="1.0" xmlns="http://www.w3.org/2000/svg"
 width="700.000000pt" height="700.000000pt" viewBox="0 0 700.000000 700.000000"
 preserveAspectRatio="xMidYMid meet">
<metadata>
Created by potrace 1.11, written by Peter Selinger 2001-2013
</metadata>
<g transform="translate(0.000000,700.000000) scale(0.100000,-0.100000)"
fill="#000000" stroke="none">
<path d="M2705 6370 c-15 -36 -31 -74 -35 -85 -5 -11 -22 -54 -38 -95 -17 -41
-78 -194 -137 -340 -59 -146 -212 -528 -341 -850 -129 -322 -239 -594 -244
-605 -5 -11 -52 -126 -104 -255 -111 -277 -492 -1224 -683 -1700 -74 -184
-250 -621 -390 -970 -140 -349 -261 -648 -268 -665 -37 -84 -93 -231 -90 -235
6 -9 1526 -3 1534 6 4 5 18 34 30 64 12 30 26 64 31 75 4 11 22 54 38 95 165
413 526 1312 536 1335 8 17 91 224 185 460 95 237 179 446 187 465 9 19 19 44
24 55 5 11 85 211 179 445 93 234 211 526 261 650 51 124 97 240 103 258 6 17
13 32 16 32 3 0 26 -51 50 -113 24 -61 52 -130 62 -152 10 -22 24 -58 32 -80
14 -41 140 -354 157 -390 9 -19 155 -383 480 -1195 78 -195 148 -368 155 -385
8 -16 64 -156 125 -310 62 -154 118 -293 125 -310 7 -16 85 -210 173 -430 88
-220 166 -413 172 -430 7 -16 19 -46 27 -65 7 -19 19 -46 26 -60 l12 -24 764
-1 c419 0 764 2 766 5 1 3 -21 64 -50 135 -29 72 -132 328 -229 570 -97 242
-180 449 -185 460 -13 31 -16 38 -298 740 -146 363 -271 674 -278 690 -7 17
-25 62 -40 100 -15 39 -38 95 -51 125 -12 30 -55 136 -94 235 -39 99 -78 194
-86 212 -8 17 -14 34 -14 37 0 3 -9 25 -19 49 -10 23 -49 116 -85 207 -36 91
-71 179 -77 195 -7 17 -13 32 -14 35 -1 3 -7 17 -12 31 -16 37 -472 1170 -533
1324 -29 72 -58 144 -65 160 -7 17 -30 73 -50 125 -21 52 -43 109 -50 125 -7
17 -37 89 -65 160 -28 72 -56 135 -61 140 -7 6 -278 10 -774 10 l-764 0 -26
-65z"/>
</g>
</svg>
