<svg id="Capa_1" data-name="Capa 1" xmlns="http://www.w3.org/2000/svg" viewBox="0 0 575.96 576.49"><defs><style>.cls-1{fill:#3400ff;}.cls-2{fill:#fefefe;fill-rule:evenodd;}</style></defs><title>arrow</title><ellipse class="cls-1" cx="287.98" cy="288.25" rx="287.98" ry="288.25"/><path class="cls-2" d="M329.53,313.85,318.8,303.11a11.55,11.55,0,0,1,0-16.39l93.95-94a11.56,11.56,0,0,1,16.39,0l94,94a11.56,11.56,0,0,1,0,16.4L512.36,313.8a11.63,11.63,0,0,1-16.59-.19l-55.46-58.22v139a11.57,11.57,0,0,1-11.6,11.6H413.23a11.57,11.57,0,0,1-11.6-11.6v-139l-55.51,58.26a11.54,11.54,0,0,1-16.59.2Z" transform="translate(-132.97 -9.39)"/></svg>